<?xml version="1.0" standalone="no"?>
<!DOCTYPE svg PUBLIC "-//W3C//DTD SVG 20010904//EN"
 "http://www.w3.org/TR/2001/REC-SVG-20010904/DTD/svg10.dtd">
<svg version="1.0" xmlns="http://www.w3.org/2000/svg"
 width="1903.000000pt" height="422.000000pt" viewBox="0 0 1903.000000 422.000000"
 preserveAspectRatio="xMidYMid meet">
<metadata>
Created by potrace 1.16, written by Peter Selinger 2001-2019
</metadata>
<g transform="translate(0.000000,422.000000) scale(0.100000,-0.100000)"
fill="#000000" stroke="none">
<path d="M18350 4204 c-160 -34 -306 -156 -356 -296 -85 -241 16 -496 238
-601 91 -44 155 -57 266 -57 168 0 288 46 393 150 96 95 139 199 139 336 0
225 -162 422 -387 469 -85 18 -208 18 -293 -1z"/>
<path d="M10830 2602 l0 -1299 444 -256 c245 -142 447 -257 450 -257 3 0 6
213 6 473 0 526 3 555 65 685 64 136 197 241 343 271 76 16 228 14 297 -4 124
-33 247 -123 307 -226 38 -65 68 -160 81 -262 l12 -89 114 123 c63 68 134 144
158 170 l43 45 85 384 c47 211 85 387 85 392 0 14 -164 116 -237 147 -168 72
-384 102 -586 83 -288 -28 -523 -135 -697 -318 l-70 -74 0 655 0 655 -450 0
-450 0 0 -1298z"/>
<path d="M0 1880 l0 -1830 440 0 440 0 0 685 0 686 102 -3 102 -3 126 -227
c69 -126 129 -228 133 -228 6 0 741 375 755 385 1 1 -16 33 -38 71 -45 78 -47
84 -22 84 30 1 200 76 285 127 111 66 275 229 341 341 56 95 109 228 134 340
24 110 24 385 -1 502 -97 450 -438 764 -936 860 -170 33 -353 40 -1128 40
l-733 0 0 -1830z m1597 1057 c177 -52 276 -164 304 -345 31 -206 -55 -399
-213 -476 -94 -46 -181 -55 -510 -56 l-298 0 0 451 0 451 333 -5 c260 -3 343
-7 384 -20z"/>
<path d="M4571 2989 c-171 -20 -386 -100 -531 -199 -251 -170 -447 -466 -532
-800 -27 -108 -57 -305 -47 -314 2 -2 123 16 269 39 146 23 266 42 267 41 2
-1 -120 -49 -270 -107 l-272 -105 2 -131 c7 -530 256 -1007 650 -1241 378
-225 892 -225 1241 1 78 51 179 141 234 210 l38 49 0 -191 0 -191 450 0 450 0
-2 272 -3 272 -465 287 c-256 159 -469 288 -475 289 -5 0 -23 -26 -40 -58 -43
-85 -172 -210 -262 -256 -130 -65 -283 -83 -422 -51 -209 50 -394 236 -456
460 -20 72 -31 340 -17 401 l9 42 -170 28 -170 29 187 30 188 30 14 34 c25 59
103 160 164 210 70 58 161 105 250 127 89 23 261 15 347 -16 180 -63 325 -218
390 -415 21 -66 27 -105 31 -222 l5 -143 425 -372 c234 -205 436 -381 449
-391 l23 -18 0 1170 0 1171 -450 0 -450 0 0 -192 -1 -193 -31 40 c-92 116
-249 236 -385 295 -180 76 -408 105 -632 79z"/>
<path d="M8513 2989 c-114 -11 -231 -36 -338 -71 -92 -31 -165 -64 -165 -74 0
-3 37 -47 83 -98 124 -136 123 -137 -26 -32 l-137 98 -53 -32 c-117 -72 -267
-212 -354 -330 -174 -236 -265 -519 -280 -870 -27 -641 237 -1152 728 -1409
397 -208 955 -225 1372 -41 189 83 412 265 524 426 l42 61 -409 185 -409 185
-38 -47 c-52 -65 -112 -109 -186 -135 -183 -67 -384 -27 -516 103 -98 97 -157
230 -183 410 l-13 93 -165 75 c-91 42 -179 81 -196 89 -31 13 -35 11 -140 -52
-221 -132 -379 -224 -369 -215 6 6 115 93 243 195 l234 185 196 -79 c108 -44
197 -79 198 -79 0 0 4 42 7 93 25 401 271 647 600 599 158 -23 270 -103 343
-246 l39 -76 478 0 479 0 -7 33 c-14 68 -85 268 -120 338 -125 249 -331 457
-573 578 -237 119 -571 171 -889 140z"/>
<path d="M15685 2989 c-244 -25 -473 -105 -669 -232 l-70 -45 75 -22 c269 -80
307 -90 359 -89 30 0 363 26 740 57 l685 57 -72 48 c-274 183 -662 266 -1048
226z"/>
<path d="M18050 1880 l0 -1080 450 412 450 411 0 669 0 668 -450 0 -450 0 0
-1080z"/>
<path d="M13386 2658 c-3 -18 -17 -184 -32 -368 -16 -211 -30 -339 -37 -346
-7 -6 -119 -100 -249 -208 l-238 -197 0 -744 0 -745 445 0 445 0 0 931 c0 790
-2 947 -16 1036 -17 119 -52 244 -95 349 -32 76 -125 223 -183 287 l-35 39 -5
-34z"/>
<path d="M16067 2565 l-719 -123 -221 118 -222 118 -64 -61 c-221 -215 -357
-489 -413 -832 -19 -124 -16 -477 6 -600 20 -109 62 -263 76 -280 5 -7 102
-22 215 -35 l206 -24 402 -369 c422 -387 483 -445 407 -386 -25 20 -202 158
-395 309 -192 150 -367 286 -387 302 -26 20 -95 47 -229 89 -105 33 -193 58
-196 56 -8 -8 74 -161 136 -253 302 -452 886 -669 1516 -564 286 48 559 191
755 396 135 142 226 289 289 467 50 143 105 127 -443 127 l-474 0 -30 -52
c-34 -62 -121 -147 -178 -176 -100 -51 -280 -68 -399 -37 -134 35 -260 133
-323 252 -33 63 -72 194 -72 245 l0 28 1004 0 1004 0 7 87 c12 138 -1 414 -24
527 -58 283 -179 515 -367 704 -75 75 -98 92 -121 91 -15 0 -351 -56 -746
-124z m-34 -311 c130 -31 264 -129 320 -232 30 -55 57 -150 57 -199 l0 -33
-550 0 -550 0 6 28 c4 15 15 54 26 87 91 281 378 426 691 349z"/>
<path d="M18498 1034 l-448 -336 0 -324 0 -324 450 0 450 0 0 660 c0 363 -1
660 -2 660 -2 0 -204 -152 -450 -336z"/>
<path d="M10830 655 l0 -605 450 0 450 0 0 353 0 353 -255 102 -256 102 -188
150 c-104 83 -192 150 -195 150 -3 0 -6 -272 -6 -605z"/>
<path d="M1765 1056 c-225 -62 -410 -117 -410 -122 0 -6 108 -207 240 -447
l240 -437 508 0 c315 0 507 4 505 9 -1 6 -147 257 -323 560 -200 344 -326 550
-335 550 -8 0 -199 -51 -425 -113z"/>
<path d="M9221 1106 c9 -9 760 -306 773 -306 18 0 106 246 106 297 0 10 -94
13 -442 13 -243 0 -439 -2 -437 -4z"/>
</g>
</svg>
